<svg width="64" height="91" viewBox="0 0 64 91" fill="none" xmlns="http://www.w3.org/2000/svg">
<g clip-path="url(#clip0_505:2)">
<path d="M64 17.7532L58.1694 83.0703L31.9608 90.3362L5.82439 83.0805L0 17.7532H64Z" fill="#264DE4"/>
<path d="M53.1778 78.9111L58.1604 23.0947H32V84.7824L53.1778 78.9111Z" fill="#2965F1"/>
<path d="M13.3523 47.3236L14.0704 55.3357H32V47.3236H13.3523Z" fill="#EBEBEB"/>
<path d="M32 31.1069H31.9723H11.9094L12.6378 39.1191H32V31.1069Z" fill="#EBEBEB"/>
<path d="M32 76.468V68.132L31.9649 68.1413L23.0417 65.7319L22.4713 59.3419H18.1353H14.4283L15.5508 71.9221L31.9631 76.4782L32 76.468Z" fill="#EBEBEB"/>
<path d="M15.062 0H24.7661V4.05807H19.1201V8.11614H24.7661V12.1742H15.062V0Z" fill="#FAFAFA"/>
<path d="M26.7069 0H36.411V3.52876H30.765V4.23451H36.411V12.3506H26.7069V8.64545H32.3529V7.9397H26.7069V0Z" fill="#FAFAFA"/>
<path d="M38.3518 0H48.0559V3.52876H42.4099V4.23451H48.0559V12.3506H38.3518V8.64545H43.9978V7.9397H38.3518V0Z" fill="#FAFAFA"/>
<path d="M41.8383 55.3357L40.9083 65.7268L31.9723 68.1387V76.4743L48.3976 71.9221L48.5181 70.5684L50.4009 49.4751L50.5964 47.3236L52.0428 31.1069H31.9723V39.1191H43.2622L42.5332 47.3236H31.9723V55.3357H41.8383Z" fill="white"/>
</g>
<defs>
<clipPath id="clip0_505:2">
<rect width="64" height="90.3362" fill="white"/>
</clipPath>
</defs>
</svg>
