<svg width="64" height="91" viewBox="0 0 64 91" fill="none" xmlns="http://www.w3.org/2000/svg">
<path d="M6 0H10.0419V3.96522H13.7675V0H17.8094V12H13.7675V8H10.0771V12H6V0ZM23.1517 4H19.5843V0H30.7786V4H27.1936V12H23.1517V4ZM32.5536 0H36.7888L39.3897 4.22609L41.9905 0H46.2258V12H42.1838V6.05217L39.3545 10.3652L36.5252 6.05217V12H32.5536V0ZM48.2291 0H52.271V8.03478H58V12H48.2291" fill="#FAFAFA"/>
<path d="M5.82139 83.7248L0 18H64L58.1786 83.6894L31.9471 91" fill="#E44D26"/>
<path d="M32 85V23H58L53.0384 79.0572" fill="#F16529"/>
<path d="M12 31H32V39.1166H20.7368L21.4737 47.4299H32V55.5286H14.1754L12 31ZM14.5263 59.6047H22.5263L23.0877 66.0944L32 68.5258V77L15.6491 72.3517" fill="#EBEBEB"/>
<path d="M52 31H32V39.1229H51.2619L52 31ZM50.5413 47.4426H32V55.5655H41.8418L40.9104 66.1217L32 68.555V77L48.3445 72.3839" fill="white"/>
</svg>
