<svg width="64" height="90" viewBox="0 0 64 90" fill="none" xmlns="http://www.w3.org/2000/svg">
<path d="M64 17.6364H0L6 82.6344L31.9964 90L57.9928 82.6344L64 17.6364Z" fill="#E6A329"/>
<path d="M31.9963 22.932V84.492L53.0594 78.5304L58.1837 22.932H31.9963Z" fill="#F1BF22"/>
<path d="M48.7531 30.906H16.3675L14.1117 55.242L14.1585 55.0908H41.672L40.7748 65.3868L31.9964 67.9104L23.0883 65.3472L22.5549 59.1156H14.4685L15.6216 71.568L31.9964 76.212L48.3784 71.568L50.6342 47.1276H21.4342L21.809 38.9844H42.0684L42.3711 43.65H50.5297L48.7531 30.906Z" fill="white"/>
<path d="M32.0036 30.906H16.3676L14.1117 55.242L14.1585 55.0908H32.0036V47.1528H22.573L22.9477 39.0096H32.0036V30.906ZM22.573 59.1156H14.4685L15.6216 71.5608L31.9964 76.1976V67.9176L23.0883 65.3472L22.573 59.1156Z" fill="#EBEBEB"/>
<path d="M25.773 8.0496H20.0757V12.1356H29.8487V0H25.773V8.0496ZM43.9207 0.0648H33.9892V4.3128C35.3153 5.6376 36.0072 6.2748 37.9604 8.1936H33.9892V12.0672H43.9207V8.2008L39.9496 4.32H43.9207V0.0648Z" fill="#FAFAFA"/>
</svg>
