<!DOCTYPE svg PUBLIC "-//W3C//DTD SVG 20010904//EN" "http://www.w3.org/TR/2001/REC-SVG-20010904/DTD/svg10.dtd">
<svg version="1.0" xmlns="http://www.w3.org/2000/svg" width="1200px" height="435px" viewBox="0 0 12000 4350" preserveAspectRatio="xMidYMid meet">
<g id="layer101" fill="#ffffff" stroke="none">
 <path d="M2966 4110 c-477 -125 -871 -232 -875 -238 -3 -6 -62 -108 -131 -227 l-125 -216 -267 3 -267 3 -118 -116 c-65 -63 -356 -346 -646 -629 l-529 -514 149 -146 c81 -81 373 -366 648 -633 l500 -487 265 6 265 6 130 -226 130 -226 50 -15 c180 -51 1709 -445 1718 -442 6 2 37 98 68 213 70 257 203 742 300 1089 39 143 80 294 91 337 l20 76 -102 169 c-56 92 -115 189 -131 214 -16 25 -29 52 -29 60 0 8 59 112 131 231 l130 217 -25 93 c-31 116 -232 848 -281 1023 -20 72 -63 229 -96 350 -33 121 -62 228 -65 238 -3 9 -13 17 -22 16 -9 -1 -408 -104 -886 -229z m264 -417 c0 -3 -13 -27 -29 -52 -15 -25 -95 -158 -176 -296 -341 -576 -471 -795 -519 -875 l-51 -85 -778 -3 c-451 -1 -777 2 -777 7 0 5 221 226 491 492 l491 484 661 167 c364 91 668 167 675 167 6 1 12 -2 12 -6z m398 -245 c5 -18 89 -312 187 -653 l177 -620 -173 -605 c-95 -333 -179 -626 -187 -652 -7 -27 -17 -48 -21 -48 -6 0 -77 117 -453 750 -352 594 -329 552 -315 574 8 12 74 122 147 246 73 124 217 367 320 540 103 173 211 357 241 407 30 51 57 93 61 93 4 0 11 -15 16 -32z m-1082 -1635 c48 -82 144 -242 212 -358 69 -115 174 -293 235 -395 60 -102 139 -234 174 -293 36 -60 62 -111 59 -114 -5 -5 -32 1 -254 56 -135 34 -300 75 -480 120 -64 16 -171 43 -237 60 -66 16 -174 43 -241 59 -66 16 -129 34 -140 40 -10 6 -235 227 -499 492 l-480 480 782 0 782 0 87 -147z"/>
 <path d="M10510 3456 l0 -174 123 -4 c136 -5 181 -19 235 -71 36 -35 62 -107 62 -171 0 -91 -47 -241 -210 -671 -98 -259 -227 -601 -312 -825 -22 -58 -48 -129 -58 -158 l-19 -52 225 2 226 3 57 160 c32 88 101 277 153 420 52 143 114 330 138 415 24 85 45 157 47 159 8 10 17 -16 53 -155 21 -82 66 -234 100 -339 34 -104 96 -297 138 -427 l76 -238 224 0 c209 0 224 1 217 18 -6 17 -207 599 -315 917 -32 94 -102 296 -155 450 -53 154 -107 312 -120 350 -96 293 -187 437 -322 508 -91 48 -153 57 -375 57 l-188 0 0 -174z"/>
 <path d="M5695 3104 c-185 -29 -328 -131 -405 -288 -69 -138 -70 -157 -70 -862 l0 -624 210 0 210 0 0 580 c0 556 1 581 20 633 22 59 75 119 131 147 60 31 161 44 232 30 114 -22 191 -79 241 -178 43 -87 46 -125 46 -682 l0 -530 210 0 210 0 0 865 0 865 -200 0 -200 0 0 -100 c0 -55 -2 -100 -4 -100 -3 0 -40 36 -84 79 -81 82 -148 123 -237 148 -51 14 -255 25 -310 17z"/>
 <path d="M9880 3060 c-73 -9 -150 -33 -196 -61 -46 -28 -113 -104 -134 -152 -35 -79 -40 -160 -40 -694 l0 -523 -120 0 -120 0 0 -150 0 -150 120 0 120 0 0 -270 0 -270 210 0 210 0 0 270 0 270 135 0 135 0 0 150 0 150 -135 0 -136 0 3 498 c3 458 4 500 21 530 27 49 84 72 180 72 l77 0 0 163 0 164 -97 6 c-112 8 -143 7 -233 -3z"/>
 <path d="M6960 2195 l0 -865 205 0 205 0 0 123 1 122 26 -35 c15 -19 56 -64 93 -100 108 -106 231 -153 400 -153 305 0 528 187 586 491 11 58 14 201 14 678 l0 604 -210 0 -209 0 -3 -577 c-3 -566 -3 -579 -24 -623 -52 -109 -153 -170 -294 -178 -90 -4 -158 14 -221 59 -47 33 -98 103 -122 166 -21 57 -22 71 -27 603 l-5 545 -207 3 -208 2 0 -865z"/>
 <path d="M8720 2195 l0 -865 210 0 210 0 0 865 0 865 -210 0 -210 0 0 -865z"/>
 <path d="M8720 960 l0 -170 210 0 210 0 0 170 0 170 -210 0 -210 0 0 -170z"/>
 </g>

</svg>